HIERARCHY
ROOT hip
{
  OFFSET 0 0 0
  CHANNELS 6 Xposition Yposition Zposition Zrotation Yrotation Xrotation
  JOINT abdomen
  {
    OFFSET 0 20.6881 -0.73152
    CHANNELS 3 Zrotation Xrotation Yrotation
    JOINT chest
    {
      OFFSET 0 11.7043 -0.48768
      CHANNELS 3 Zrotation Xrotation Yrotation
      JOINT neck
      {
        OFFSET 0 22.1894 -2.19456
        CHANNELS 3 Zrotation Xrotation Yrotation
        JOINT head
        {
          OFFSET -0.24384 7.07133 1.2192
          CHANNELS 3 Zrotation Xrotation Yrotation
          JOINT leftEye
          {
            OFFSET 4.14528 8.04674 8.04672
            CHANNELS 3 Zrotation Xrotation Yrotation
            End Site
            {
              OFFSET 1 0 0
            }
          }
          JOINT rightEye
          {
            OFFSET -3.6576 8.04674 8.04672
            CHANNELS 3 Zrotation Xrotation Yrotation
            End Site
            {
              OFFSET 1 0 0
            }
          }
        }
      }
      JOINT rCollar
      {
        OFFSET -2.68224 19.2634 -4.8768
        CHANNELS 3 Zrotation Xrotation Yrotation
        JOINT rShldr
        {
          OFFSET -8.77824 -1.95073 1.46304
          CHANNELS 3 Zrotation Xrotation Yrotation
          JOINT rForeArm
          {
            OFFSET -28.1742 -1.7115 0.48768
            CHANNELS 3 Zrotation Xrotation Yrotation
            JOINT rHand
            {
              OFFSET -22.5879 0.773209 7.07136
              CHANNELS 3 Zrotation Xrotation Yrotation
              JOINT rThumb1
              {
                OFFSET -1.2192 -0.487915 3.41376
                CHANNELS 3 Zrotation Xrotation Yrotation
                JOINT rThumb2
                {
                  OFFSET -3.37035 -0.52449 3.41376
                  CHANNELS 3 Zrotation Xrotation Yrotation
                  End Site
                  {
                    OFFSET -1.78271 -1.18214 1.43049
                  }
                }
              }
              JOINT rIndex1
              {
                OFFSET -7.75947 0.938293 5.60832
                CHANNELS 3 Zrotation Xrotation Yrotation
                JOINT rIndex2
                {
                  OFFSET -2.54057 -0.884171 1.56538
                  CHANNELS 3 Zrotation Xrotation Yrotation
                  End Site
                  {
                    OFFSET -1.62519 -0.234802 1.16502
                  }
                }
              }
              JOINT rMid1
              {
                OFFSET -8.24714 1.18213 3.41376
                CHANNELS 3 Zrotation Xrotation Yrotation
                JOINT rMid2
                {
                  OFFSET -3.10165 -0.590103 1.0647
                  CHANNELS 3 Zrotation Xrotation Yrotation
                  End Site
                  {
                    OFFSET -2.48547 -0.328903 0.83742
                  }
                }
              }
              JOINT rRing1
              {
                OFFSET -8.82822 0.546677 1.51678
                CHANNELS 3 Zrotation Xrotation Yrotation
                JOINT rRing2
                {
                  OFFSET -2.60934 -0.819778 -0.0198488
                  CHANNELS 3 Zrotation Xrotation Yrotation
                  End Site
                  {
                    OFFSET -2.33842 -0.294052 0.168128
                  }
                }
              }
              JOINT rPinky1
              {
                OFFSET -8.27202 -0.0477905 -0.4584
                CHANNELS 3 Zrotation Xrotation Yrotation
                JOINT rPinky2
                {
                  OFFSET -1.82734 -0.647385 -0.700984
                  CHANNELS 3 Zrotation Xrotation Yrotation
                  End Site
                  {
                    OFFSET -1.69225 -0.51767 -0.607171
                  }
                }
              }
            }
          }
        }
      }
      JOINT lCollar
      {
        OFFSET 2.68224 19.2634 -4.8768
        CHANNELS 3 Zrotation Xrotation Yrotation
        JOINT lShldr
        {
          OFFSET 8.77824 -1.95073 1.46304
          CHANNELS 3 Zrotation Xrotation Yrotation
          JOINT lForeArm
          {
            OFFSET 28.1742 -1.7115 0.48768
            CHANNELS 3 Zrotation Xrotation Yrotation
            JOINT lHand
            {
              OFFSET 22.5879 0.773209 7.07136
              CHANNELS 3 Zrotation Xrotation Yrotation
              JOINT lThumb1
              {
                OFFSET 1.2192 -0.487915 3.41376
                CHANNELS 3 Zrotation Xrotation Yrotation
                JOINT lThumb2
                {
                  OFFSET 3.37035 -0.52449 3.41376
                  CHANNELS 3 Zrotation Xrotation Yrotation
                  End Site
                  {
                    OFFSET 1.78271 -1.18214 1.43049
                  }
                }
              }
              JOINT lIndex1
              {
                OFFSET 7.75947 0.938293 5.60832
                CHANNELS 3 Zrotation Xrotation Yrotation
                JOINT lIndex2
                {
                  OFFSET 2.54057 -0.884171 1.56538
                  CHANNELS 3 Zrotation Xrotation Yrotation
                  End Site
                  {
                    OFFSET 1.62519 -0.234802 1.16502
                  }
                }
              }
              JOINT lMid1
              {
                OFFSET 8.24714 1.18213 3.41376
                CHANNELS 3 Zrotation Xrotation Yrotation
                JOINT lMid2
                {
                  OFFSET 3.10165 -0.590103 1.0647
                  CHANNELS 3 Zrotation Xrotation Yrotation
                  End Site
                  {
                    OFFSET 2.48547 -0.328903 0.83742
                  }
                }
              }
              JOINT lRing1
              {
                OFFSET 8.82822 0.546677 1.51678
                CHANNELS 3 Zrotation Xrotation Yrotation
                JOINT lRing2
                {
                  OFFSET 2.60934 -0.819778 -0.0198488
                  CHANNELS 3 Zrotation Xrotation Yrotation
                  End Site
                  {
                    OFFSET 2.33842 -0.294052 0.168128
                  }
                }
              }
              JOINT lPinky1
              {
                OFFSET 8.27202 -0.0477905 -0.4584
                CHANNELS 3 Zrotation Xrotation Yrotation
                JOINT lPinky2
                {
                  OFFSET 1.82734 -0.647385 -0.700984
                  CHANNELS 3 Zrotation Xrotation Yrotation
                  End Site
                  {
                    OFFSET 1.69225 -0.51767 -0.607171
                  }
                }
              }
            }
          }
        }
      }
    }
  }
  JOINT rButtock
  {
    OFFSET -8.77824 4.35084 1.2192
    CHANNELS 3 Zrotation Xrotation Yrotation
    JOINT rThigh
    {
      OFFSET 0 -1.70687 -2.19456
      CHANNELS 3 Zrotation Xrotation Yrotation
      JOINT rShin
      {
        OFFSET 0 -36.8199 0.73152
        CHANNELS 3 Zrotation Xrotation Yrotation
        JOINT rFoot
        {
          OFFSET 0.73152 -45.1104 -5.12064
          CHANNELS 3 Zrotation Xrotation Yrotation
          End Site
          {
            OFFSET -1.1221 -3.69964 12.103
          }
        }
      }
    }
  }
  JOINT lButtock
  {
    OFFSET 8.77824 4.35084 1.2192
    CHANNELS 3 Zrotation Xrotation Yrotation
    JOINT lThigh
    {
      OFFSET 0 -1.70687 -2.19456
      CHANNELS 3 Zrotation Xrotation Yrotation
      JOINT lShin
      {
        OFFSET 0 -36.8199 0.73152
        CHANNELS 3 Zrotation Xrotation Yrotation
        JOINT lFoot
        {
          OFFSET -0.73152 -45.1104 -5.12064
          CHANNELS 3 Zrotation Xrotation Yrotation
          End Site
          {
            OFFSET 1.1221 -3.69964 12.103
          }
        }
      }
    }
  }
}
MOTION
Frames:	6
Frame Time:	0.03333
0.0 0.0 0.0 0.0 0.0 0.0 0.0 0.0 0.0 0.0 0.0 0.0 0.0 0.0 0.0 0.0 0.0 0.0 0.0 0.0 0.0 0.0 0.0 0.0 0.0 0.0 0.0 0.0 0.0 0.0 0.0 0.0 0.0 0.0 0.0 0.0 0.0 0.0 0.0 0.0 0.0 0.0 0.0 0.0 0.0 0.0 0.0 0.0 0.0 0.0 0.0 0.0 0.0 0.0 0.0 0.0 0.0 0.0 0.0 0.0 0.0 0.0 0.0 0.0 0.0 0.0 0.0 0.0 0.0 0.0 0.0 0.0 0.0 0.0 0.0 0.0 0.0 0.0 0.0 0.0 0.0 0.0 0.0 0.0 0.0 0.0 0.0 0.0 0.0 0.0 0.0 0.0 0.0 0.0 0.0 0.0 0.0 0.0 0.0 0.0 0.0 0.0 0.0 0.0 0.0 0.0 0.0 0.0 0.0 0.0 0.0 0.0 0.0 0.0 0.0 0.0 0.0 0.0 0.0 0.0 0.0 0.0 0.0 0.0 0.0 0.0 0.0 0.0 0.0 0.0 0.0 0.0
0.4339 28.109099999999998 1.0043 -1.407803 1.457441 0.447649 -1.33611 -4.320654 -60.868066 -11.325834 12.924963 66.787463 171.882167 -21.111001 -89.22285 107.944723 -18.568101 -54.356952 143.27464 0.615899 -1.855351 -46.6012 -17.774477 39.908996 16.29088 -29.281019 87.75182 105.113269 13.212782 -8.385055 127.182431 22.210829 -48.989718 77.202589 12.23102 -18.70775 13.938038 -21.965275 -151.760223 95.530866 80.046999 71.143401 82.001169 -35.737315 -109.56154 -95.357757 32.870372 -132.280348 59.257354 62.538808 7.382734 -39.25121 65.239677 -27.340393 -119.335075 7.735477 -47.861343 -162.03017 28.714778 -13.996725 52.678188 -8.475706 -66.661392 -4.434494 -71.519522 163.675449 -154.821493 29.900109 -22.206678 -118.464783 5.669869 149.440875 164.888665 51.194722 167.785983 156.426857 68.401295 122.657586 -150.036313 11.766107 -33.154761 25.745323 42.7545 -168.383001 -150.369572 32.149268 149.65116 -7.09429 39.260536 -156.450591 -150.015572 -10.673486 142.590043 -101.213901 63.383258 4.266035 40.918038 5.195507 -163.501293 -101.244367 36.016233 -46.283665 143.094771 20.541391 -31.124604 -147.146557 -14.369695 -37.827419 93.308495 -22.446252 47.895597 -90.082996 40.096005 -180.0 -0.700312 -8.954027 -63.478679 144.287271 -10.607193 -102.757141 26.572367 6.510785 87.084628 -13.542374 21.659326 114.32901 10.032884 -3.617933 103.736686 50.379308 -34.355045 -170.044972
0.9856 51.7096 0.6479999999999999 -175.446371 -17.430851 -179.54653 3.971548 -1.186854 85.836676 14.520943 1.361596 -83.445961 2.567044 -6.327044 -96.258581 32.588442 -22.158978 58.07927 30.091971 -2.2593 -8.390894 -54.602692 -18.981586 35.892374 -160.133497 -68.704018 163.616594 -5.088516 3.088575 -39.880232 65.460521 -57.900944 -60.193951 -154.823182 -1.680903 117.688111 37.743809 38.059876 -72.259274 136.243557 63.006209 19.651113 14.541386 6.050442 -70.201839 11.527194 24.462188 113.456987 -175.693842 -40.023422 79.808406 105.761005 76.004942 -15.619891 -79.167053 7.993798 -143.197193 -28.942465 -5.498578 -157.868536 128.394924 21.086038 -27.178563 -154.597569 -27.214897 -7.458216 -9.11871 -0.516747 -8.629285 -118.335396 -71.884753 -47.918575 172.216966 76.442166 94.526575 22.594957 9.543313 13.677573 -2.815763 -1.267834 -47.06341 -161.385984 63.216877 136.433047 -88.25367 53.682831 87.591514 -43.341634 50.65928 -169.2582 28.824157 -39.080001 119.25201 48.835146 -66.569282 -168.021218 123.365699 28.343434 -141.975156 -57.764144 -22.694699 -17.514777 -87.30393 -47.407084 -6.198576 -95.63502 77.699697 -178.299983 35.726126 -12.38482 68.063647 -24.024942 33.409824 13.378769 36.847199 0.04486 98.043742 -107.855819 37.980114 -175.179646 36.597531 -3.656392 108.397012 -8.16044 28.228258 16.866007 35.249359 -5.574937 152.817938 134.020448 1.182324 -113.615809
1.4061000000000001 69.2826 0.1674 -176.819471 -16.316708 -175.64609 4.667024 3.993263 -0.13131 0.813457 5.28079 -2.980568 -9.578339 -11.518622 1.110466 5.222834 -16.542495 -16.009812 21.743595 -9.537557 -46.956781 -54.859493 -2.812857 5.416714 -1.129423 -0.143023 8.903728 59.145395 -4.051265 17.064171 -7.865075 1.360305 82.163497 -8.793972 11.908059 -27.060412 179.25717 -8.553684 85.726156 -157.24362 28.747315 -161.275616 89.455212 1.516046 32.765395 -86.187649 -72.391338 -63.30989 -164.802765 -16.516513 102.495959 -175.390604 -24.492701 91.891788 -103.799667 5.48926 168.859039 -127.040225 55.389599 -163.293672 82.709519 -29.789365 123.850794 -102.104056 -39.620131 -8.593413 -10.654915 -26.174039 4.496291 -70.952878 3.096934 6.626056 2.176913 27.502675 -112.362607 15.137022 18.490909 15.94382 89.15539 30.661479 -35.219501 -92.926712 -58.402622 -54.475563 127.194869 -11.994193 -159.995307 -41.738621 81.768023 -46.271702 50.94375 24.418059 -28.102955 59.391268 73.431494 -93.958436 94.511747 -15.011015 -131.363304 -34.831572 22.592011 -12.0187 -57.103868 -8.456488 38.050721 9.783876 -43.025894 -64.923538 3.685341 -6.935315 28.076504 -29.012703 -16.239175 -9.414872 39.110483 32.075331 -35.929012 -32.416508 12.915038 -15.10758 25.189041 3.235199 88.47483 -35.10661 9.362406 -103.029549 -41.75495 42.594165 -47.627318 107.186965 -48.98279 -164.738709
1.6637 69.0236 -0.18439999999999998 177.115252 -13.20714 -172.637156 -3.565223 5.983483 -149.133233 -4.359042 2.774011 146.63099 -28.073448 2.410248 -7.029123 23.932168 -17.79652 -6.508681 152.157451 22.289255 -76.953901 -11.358802 5.031545 -47.671358 -159.07856 -4.902634 158.799879 -51.621867 -58.451788 -24.797652 -46.417136 37.365141 -81.650452 128.084249 -43.851327 98.995183 -97.963147 31.886763 28.31604 147.242971 -54.871949 -65.282989 89.272389 -10.297021 51.564935 125.938768 2.546694 135.591058 -10.456794 -29.863743 16.99696 -12.014373 -54.79592 -44.797019 -14.895049 -5.29609 13.439452 -169.888659 28.465632 -172.858805 -38.294275 8.663497 52.387839 -45.588265 0.349095 -66.242005 -5.557266 -0.485551 1.311013 -102.045497 -59.571896 -26.627544 24.83767 87.814467 -147.722689 14.660236 22.257741 8.973949 -18.164467 -57.574641 2.881192 29.491927 -71.122259 129.421035 24.672062 40.793202 -16.068234 -3.549931 -36.109607 115.76068 9.885404 -5.249771 -23.38091 178.738013 31.216645 163.281633 88.469218 42.913466 -89.470076 -55.404254 -50.19263 -68.591636 -63.085302 -19.43808 25.574955 -169.339576 1.114075 -159.533314 -82.980871 25.486336 -3.945433 80.645207 -54.587257 79.365917 70.098078 4.36763 -2.857823 -150.564269 17.853966 90.067547 80.746935 6.057809 64.053822 -79.665157 23.589366 -180.0 -41.817811 -60.709573 -136.777857 -94.647303 47.943535 -4.284378
2.0284 61.54690000000001 -0.5811000000000001 172.847255 -4.686022 -171.582164 -13.436089 13.348505 -0.0 10.935441 -8.897823 2.478508 -15.688388 27.14956 105.664119 -43.692353 7.535221 -120.052652 -157.639187 -9.625285 -46.145884 22.768568 -19.06834 -79.66625 -3.338424 -62.011004 -18.46266 51.272456 20.810329 -17.100744 172.718999 -24.43239 55.816274 146.569789 -1.482873 139.976149 -105.533096 40.40395 32.350043 4.026307 -25.941838 122.112793 -89.88654 4.339733 58.480019 16.557156 62.90629 7.61208 -71.938105 -78.927858 -21.752849 158.872717 42.792956 -144.163255 176.654836 27.072382 179.651764 -140.242735 6.828688 -168.804857 -131.001417 -17.951326 -112.355535 -33.970741 20.630101 125.645649 145.810988 25.867651 -153.133544 -135.179655 6.990216 -160.6019 -170.913929 -2.520999 -12.350971 -176.69881 0.459448 -132.045069 41.860497 38.38854 18.173751 171.627866 -33.124125 -2.735519 141.057782 1.901532 -109.380078 -6.344994 -4.541076 -78.935665 163.740846 -35.370281 -139.079123 114.983438 25.378779 -124.649969 135.245877 -82.646549 127.816048 53.647159 -17.165754 124.645547 -81.542643 -26.851969 -42.531055 46.499068 -43.517191 -19.731813 -4.188691 27.461168 6.724373 -93.658634 -63.546829 -180.0 -85.658775 8.026057 -45.137868 130.114601 -14.851708 -135.68994 89.758443 3.140394 45.049426 -83.822683 6.660145 -90.719196 -62.564692 -5.37535 77.087786 -118.880563 -50.209322 -23.423859
